<svg width="256" height="48" viewBox="0 0 256 48" fill="none" xmlns="http://www.w3.org/2000/svg">
<path d="M20.984 38V37.04C22.008 36.976 22.776 36.848 23.288 36.656C23.8 36.464 24.136 36.08 24.296 35.504C24.488 34.928 24.584 34.064 24.584 32.912V9.104C24.584 7.92 24.488 7.056 24.296 6.512C24.136 5.936 23.784 5.552 23.24 5.36C22.728 5.136 21.976 5.008 20.984 4.976V4.016C21.848 4.048 22.968 4.08 24.344 4.112C25.752 4.144 27.144 4.16 28.52 4.16C29.992 4.16 31.368 4.144 32.648 4.112C33.96 4.08 35.016 4.048 35.816 4.016V4.976C34.792 5.008 34.008 5.136 33.464 5.36C32.952 5.552 32.616 5.936 32.456 6.512C32.296 7.056 32.216 7.92 32.216 9.104V32.912C32.216 34.064 32.296 34.928 32.456 35.504C32.648 36.08 33 36.464 33.512 36.656C34.024 36.848 34.792 36.976 35.816 37.04V38C35.016 37.936 33.96 37.904 32.648 37.904C31.368 37.872 29.992 37.856 28.52 37.856C27.144 37.856 25.752 37.872 24.344 37.904C22.968 37.904 21.848 37.936 20.984 38ZM0.632 38V37.04C1.656 36.976 2.424 36.848 2.936 36.656C3.448 36.464 3.784 36.08 3.944 35.504C4.136 34.928 4.232 34.064 4.232 32.912V9.104C4.232 7.92 4.136 7.056 3.944 6.512C3.784 5.936 3.432 5.552 2.888 5.36C2.376 5.136 1.624 5.008 0.632 4.976V4.016C1.464 4.048 2.536 4.08 3.848 4.112C5.192 4.144 6.648 4.16 8.216 4.16C9.56 4.16 10.888 4.144 12.2 4.112C13.512 4.08 14.6 4.048 15.464 4.016V4.976C14.44 5.008 13.656 5.136 13.112 5.36C12.6 5.552 12.264 5.936 12.104 6.512C11.944 7.056 11.864 7.92 11.864 9.104V32.912C11.864 34.064 11.944 34.928 12.104 35.504C12.296 36.08 12.648 36.464 13.16 36.656C13.672 36.848 14.44 36.976 15.464 37.04V38C14.6 37.936 13.512 37.904 12.2 37.904C10.888 37.872 9.56 37.856 8.216 37.856C6.648 37.856 5.192 37.872 3.848 37.904C2.536 37.904 1.464 37.936 0.632 38ZM8.744 21.392V20.432H27.704V21.392H8.744ZM44.7826 0.799998C46.1266 0.799998 47.1826 1.136 47.9506 1.808C48.7506 2.448 49.1506 3.344 49.1506 4.496C49.1506 5.648 48.7506 6.56 47.9506 7.232C47.1826 7.872 46.1266 8.192 44.7826 8.192C43.4386 8.192 42.3666 7.872 41.5666 7.232C40.7986 6.56 40.4146 5.648 40.4146 4.496C40.4146 3.344 40.7986 2.448 41.5666 1.808C42.3666 1.136 43.4386 0.799998 44.7826 0.799998ZM48.5266 12.656V33.536C48.5266 34.88 48.7506 35.792 49.1986 36.272C49.6786 36.752 50.4786 36.992 51.5986 36.992V38C51.0226 37.968 50.1266 37.936 48.9106 37.904C47.6946 37.84 46.4626 37.808 45.2146 37.808C43.9666 37.808 42.7026 37.84 41.4226 37.904C40.1426 37.936 39.1826 37.968 38.5426 38V36.992C39.6626 36.992 40.4466 36.752 40.8946 36.272C41.3746 35.792 41.6146 34.88 41.6146 33.536V18.416C41.6146 16.976 41.3906 15.92 40.9426 15.248C40.5266 14.544 39.7266 14.192 38.5426 14.192V13.184C39.5666 13.28 40.5586 13.328 41.5186 13.328C42.8626 13.328 44.1106 13.28 45.2626 13.184C46.4466 13.056 47.5346 12.88 48.5266 12.656ZM58.8193 31.28C59.6193 31.28 60.3073 31.424 60.8833 31.712C61.4593 32 61.9073 32.416 62.2273 32.96C62.5793 33.408 62.8353 34 62.9953 34.736C63.1873 35.472 63.2833 36.208 63.2833 36.944C63.2833 38.544 62.8673 40.016 62.0353 41.36C61.2353 42.736 59.9713 43.824 58.2433 44.624L57.8113 43.76C58.7073 43.376 59.5073 42.784 60.2113 41.984C60.9153 41.184 61.3313 40.368 61.4593 39.536C61.6193 38.832 61.6193 38.16 61.4593 37.52C60.7553 38.288 59.8273 38.672 58.6753 38.672C57.5553 38.672 56.6433 38.352 55.9393 37.712C55.2353 37.04 54.8833 36.128 54.8833 34.976C54.8833 33.856 55.2513 32.96 55.9873 32.288C56.7553 31.616 57.6993 31.28 58.8193 31.28ZM93.2296 4.016V4.976C92.2056 5.008 91.4216 5.136 90.8776 5.36C90.3656 5.552 90.0296 5.936 89.8696 6.512C89.7096 7.056 89.6296 7.92 89.6296 9.104V32.912C89.6296 34.064 89.7096 34.928 89.8696 35.504C90.0616 36.08 90.4136 36.464 90.9256 36.656C91.4376 36.848 92.2056 36.976 93.2296 37.04V38C92.3656 37.936 91.2776 37.904 89.9656 37.904C88.6536 37.872 87.3256 37.856 85.9816 37.856C84.4136 37.856 82.9576 37.872 81.6136 37.904C80.3016 37.904 79.2296 37.936 78.3976 38V37.04C79.4216 36.976 80.1896 36.848 80.7016 36.656C81.2136 36.464 81.5496 36.08 81.7096 35.504C81.9016 34.928 81.9976 34.064 81.9976 32.912V9.104C81.9976 7.92 81.9016 7.056 81.7096 6.512C81.5496 5.936 81.1976 5.552 80.6536 5.36C80.1416 5.136 79.3896 5.008 78.3976 4.976V4.016C79.2296 4.048 80.3016 4.08 81.6136 4.112C82.9576 4.144 84.4136 4.16 85.9816 4.16C87.3256 4.16 88.6536 4.144 89.9656 4.112C91.2776 4.08 92.3656 4.048 93.2296 4.016ZM100.525 3.344C101.325 3.344 102.013 3.488 102.589 3.776C103.165 4.064 103.613 4.48 103.933 5.024C104.285 5.472 104.541 6.064 104.701 6.8C104.893 7.536 104.989 8.272 104.989 9.008C104.989 10.608 104.573 12.096 103.741 13.472C102.941 14.816 101.677 15.888 99.9485 16.688L99.5165 15.824C100.413 15.44 101.213 14.848 101.917 14.048C102.621 13.248 103.037 12.432 103.165 11.6C103.325 10.896 103.325 10.224 103.165 9.584C102.461 10.352 101.533 10.736 100.381 10.736C99.2605 10.736 98.3485 10.416 97.6445 9.776C96.9405 9.104 96.5885 8.192 96.5885 7.04C96.5885 5.92 96.9565 5.024 97.6925 4.352C98.4605 3.68 99.4045 3.344 100.525 3.344ZM125.529 12.512C126.873 12.512 127.961 12.688 128.793 13.04C129.625 13.36 130.297 13.808 130.809 14.384C131.321 14.992 131.689 15.792 131.913 16.784C132.137 17.744 132.249 19.024 132.249 20.624V33.536C132.249 34.88 132.457 35.792 132.873 36.272C133.289 36.752 134.009 36.992 135.033 36.992V38C134.457 37.968 133.577 37.936 132.393 37.904C131.241 37.84 130.105 37.808 128.985 37.808C127.833 37.808 126.697 37.84 125.577 37.904C124.457 37.936 123.609 37.968 123.033 38V36.992C123.897 36.992 124.489 36.752 124.809 36.272C125.161 35.792 125.337 34.88 125.337 33.536V18.608C125.337 17.808 125.273 17.12 125.145 16.544C125.017 15.936 124.761 15.472 124.377 15.152C124.025 14.8 123.481 14.624 122.745 14.624C121.913 14.624 121.145 14.864 120.441 15.344C119.737 15.824 119.161 16.496 118.713 17.36C118.297 18.192 118.089 19.136 118.089 20.192V33.536C118.089 34.88 118.265 35.792 118.617 36.272C118.969 36.752 119.561 36.992 120.393 36.992V38C119.881 37.968 119.081 37.936 117.993 37.904C116.937 37.84 115.849 37.808 114.729 37.808C113.513 37.808 112.265 37.84 110.985 37.904C109.705 37.936 108.745 37.968 108.105 38V36.992C109.225 36.992 110.009 36.752 110.457 36.272C110.937 35.792 111.177 34.88 111.177 33.536V18.416C111.177 16.976 110.953 15.92 110.505 15.248C110.089 14.544 109.289 14.192 108.105 14.192V13.184C109.129 13.28 110.121 13.328 111.081 13.328C112.425 13.328 113.673 13.28 114.825 13.184C116.009 13.056 117.097 12.88 118.089 12.656V16.976C118.857 15.376 119.897 14.24 121.209 13.568C122.521 12.864 123.961 12.512 125.529 12.512ZM139.977 12.512C141.321 12.512 142.409 12.688 143.241 13.04C144.073 13.36 144.745 13.808 145.257 14.384C145.769 14.992 146.137 15.792 146.361 16.784C146.585 17.744 146.697 19.024 146.697 20.624V33.536C146.697 34.88 146.921 35.792 147.369 36.272C147.849 36.752 148.649 36.992 149.769 36.992V38C149.161 37.968 148.249 37.936 147.033 37.904C145.817 37.84 144.617 37.808 143.433 37.808C142.281 37.808 141.145 37.84 140.025 37.904C138.905 37.936 138.057 37.968 137.481 38V36.992C138.345 36.992 138.937 36.752 139.257 36.272C139.609 35.792 139.785 34.88 139.785 33.536V18.608C139.785 17.808 139.705 17.12 139.545 16.544C139.417 15.936 139.145 15.472 138.729 15.152C138.345 14.8 137.737 14.624 136.905 14.624C136.073 14.624 135.305 14.88 134.601 15.392C133.897 15.904 133.321 16.592 132.873 17.456C132.457 18.32 132.233 19.28 132.201 20.336L131.961 17.408C132.825 15.488 133.961 14.192 135.369 13.52C136.809 12.848 138.345 12.512 139.977 12.512ZM160.505 47.024V46.064C161.785 45.936 162.873 45.552 163.769 44.912C164.665 44.304 165.353 43.248 165.833 41.744C166.313 40.24 166.553 38.128 166.553 35.408V9.104C166.553 7.92 166.457 7.056 166.265 6.512C166.105 5.936 165.769 5.552 165.257 5.36C164.745 5.136 163.977 5.008 162.953 4.976V4.016C163.753 4.048 164.793 4.08 166.073 4.112C167.385 4.144 168.761 4.16 170.201 4.16C171.641 4.16 173.033 4.144 174.377 4.112C175.753 4.08 176.889 4.048 177.785 4.016V4.976C176.793 5.008 176.025 5.136 175.481 5.36C174.969 5.552 174.617 5.936 174.425 6.512C174.265 7.056 174.185 7.92 174.185 9.104V26.672C174.185 27.984 174.185 29.408 174.185 30.944C174.185 32.448 174.121 33.92 173.993 35.36C173.897 36.8 173.689 38.08 173.369 39.2C172.729 41.408 171.337 43.264 169.193 44.768C167.081 46.272 164.185 47.024 160.505 47.024ZM191.739 12.512C194.075 12.512 196.123 12.944 197.883 13.808C199.643 14.672 201.019 16.064 202.011 17.984C203.003 19.904 203.499 22.448 203.499 25.616C203.499 28.784 203.003 31.328 202.011 33.248C201.019 35.136 199.643 36.512 197.883 37.376C196.123 38.24 194.075 38.672 191.739 38.672C189.467 38.672 187.435 38.24 185.643 37.376C183.883 36.512 182.491 35.136 181.467 33.248C180.475 31.328 179.979 28.784 179.979 25.616C179.979 22.448 180.475 19.904 181.467 17.984C182.491 16.064 183.883 14.672 185.643 13.808C187.435 12.944 189.467 12.512 191.739 12.512ZM191.739 13.472C190.459 13.472 189.387 14.432 188.523 16.352C187.659 18.24 187.227 21.328 187.227 25.616C187.227 29.904 187.659 32.992 188.523 34.88C189.387 36.768 190.459 37.712 191.739 37.712C193.051 37.712 194.123 36.768 194.955 34.88C195.819 32.992 196.251 29.904 196.251 25.616C196.251 21.328 195.819 18.24 194.955 16.352C194.123 14.432 193.051 13.472 191.739 13.472ZM213.12 38.336C211.68 38.336 210.48 38.064 209.52 37.52C208.56 36.976 207.856 36.256 207.408 35.36C206.96 34.432 206.736 33.424 206.736 32.336C206.736 30.96 207.04 29.84 207.648 28.976C208.288 28.112 209.104 27.408 210.096 26.864C211.088 26.32 212.128 25.872 213.216 25.52C214.336 25.168 215.392 24.832 216.384 24.512C217.408 24.16 218.224 23.76 218.832 23.312C219.472 22.832 219.792 22.224 219.792 21.488V17.744C219.792 16.912 219.648 16.176 219.36 15.536C219.104 14.864 218.688 14.352 218.112 14C217.568 13.648 216.848 13.472 215.952 13.472C215.312 13.472 214.672 13.568 214.032 13.76C213.392 13.92 212.864 14.208 212.448 14.624C213.344 14.944 214.032 15.44 214.512 16.112C215.024 16.752 215.28 17.488 215.28 18.32C215.28 19.408 214.896 20.272 214.128 20.912C213.392 21.552 212.512 21.872 211.488 21.872C210.336 21.872 209.456 21.52 208.848 20.816C208.272 20.08 207.984 19.2 207.984 18.176C207.984 17.248 208.208 16.48 208.656 15.872C209.136 15.264 209.792 14.688 210.624 14.144C211.52 13.632 212.592 13.232 213.84 12.944C215.12 12.656 216.496 12.512 217.968 12.512C219.44 12.512 220.768 12.672 221.952 12.992C223.136 13.28 224.128 13.824 224.928 14.624C225.664 15.36 226.144 16.272 226.368 17.36C226.592 18.416 226.704 19.76 226.704 21.392V34.448C226.704 35.248 226.784 35.808 226.944 36.128C227.104 36.416 227.376 36.56 227.76 36.56C228.048 36.56 228.32 36.48 228.576 36.32C228.864 36.16 229.168 35.968 229.488 35.744L229.968 36.56C229.296 37.136 228.512 37.584 227.616 37.904C226.752 38.192 225.776 38.336 224.688 38.336C223.504 38.336 222.56 38.176 221.856 37.856C221.152 37.504 220.64 37.04 220.32 36.464C220.032 35.888 219.888 35.216 219.888 34.448C219.12 35.664 218.192 36.624 217.104 37.328C216.016 38 214.688 38.336 213.12 38.336ZM216.528 35.264C217.168 35.264 217.744 35.12 218.256 34.832C218.8 34.512 219.312 34 219.792 33.296V23.456C219.504 23.936 219.104 24.368 218.592 24.752C218.08 25.136 217.536 25.536 216.96 25.952C216.384 26.336 215.824 26.768 215.28 27.248C214.768 27.728 214.352 28.32 214.032 29.024C213.712 29.728 213.552 30.576 213.552 31.568C213.552 32.816 213.824 33.744 214.368 34.352C214.912 34.96 215.632 35.264 216.528 35.264ZM214.224 0.271999C215.216 0.271999 216.048 0.431999 216.72 0.751999C217.392 1.072 218 1.44 218.544 1.856C219.12 2.272 219.696 2.64 220.272 2.96C220.88 3.28 221.568 3.44 222.336 3.44C223.008 3.44 223.648 3.248 224.256 2.864C224.896 2.448 225.488 1.792 226.032 0.895997L226.704 1.232C226.16 3.6 225.344 5.312 224.256 6.368C223.2 7.392 222.032 7.904 220.752 7.904C219.76 7.904 218.912 7.744 218.208 7.424C217.536 7.104 216.912 6.736 216.336 6.32C215.792 5.872 215.232 5.488 214.656 5.168C214.08 4.848 213.392 4.688 212.592 4.688C211.92 4.688 211.264 4.896 210.624 5.312C210.016 5.696 209.44 6.352 208.896 7.28L208.224 6.944C208.768 4.544 209.584 2.832 210.672 1.808C211.76 0.783999 212.944 0.271999 214.224 0.271999ZM243.724 12.512C246.06 12.512 248.108 12.944 249.868 13.808C251.628 14.672 253.004 16.064 253.996 17.984C254.988 19.904 255.484 22.448 255.484 25.616C255.484 28.784 254.988 31.328 253.996 33.248C253.004 35.136 251.628 36.512 249.868 37.376C248.108 38.24 246.06 38.672 243.724 38.672C241.452 38.672 239.42 38.24 237.628 37.376C235.868 36.512 234.476 35.136 233.452 33.248C232.46 31.328 231.964 28.784 231.964 25.616C231.964 22.448 232.46 19.904 233.452 17.984C234.476 16.064 235.868 14.672 237.628 13.808C239.42 12.944 241.452 12.512 243.724 12.512ZM243.724 13.472C242.444 13.472 241.372 14.432 240.508 16.352C239.644 18.24 239.212 21.328 239.212 25.616C239.212 29.904 239.644 32.992 240.508 34.88C241.372 36.768 242.444 37.712 243.724 37.712C245.036 37.712 246.108 36.768 246.94 34.88C247.804 32.992 248.236 29.904 248.236 25.616C248.236 21.328 247.804 18.24 246.94 16.352C246.108 14.432 245.036 13.472 243.724 13.472Z" fill="#141414"/>
</svg>
